<?xml version="1.0" encoding="UTF-8"?>
<svg id="Layer_1" data-name="Layer 1" xmlns="http://www.w3.org/2000/svg" viewBox="0 0 100 100">
  <defs>
    <style>
      .cls-1 {
        fill: #1f6c8d;
      }
    </style>
  </defs>
  <g id="Group-5">
    <path id="Path" class="cls-1" d="m53.38,28.02h-6.76c-.93,0-1.69.76-1.69,1.69s.76,1.69,1.69,1.69h6.76c.93,0,1.69-.76,1.69-1.69s-.76-1.69-1.69-1.69Z"/>
    <path id="Path-2" data-name="Path" class="cls-1" d="m53.38,34.78h-6.76c-.93,0-1.69.76-1.69,1.69s.76,1.69,1.69,1.69h6.76c.93,0,1.69-.76,1.69-1.69s-.76-1.69-1.69-1.69Z"/>
    <path id="Path-3" data-name="Path" class="cls-1" d="m53.38,41.55h-6.76c-.93,0-1.69.76-1.69,1.69s.76,1.69,1.69,1.69h6.76c.93,0,1.69-.76,1.69-1.69s-.76-1.69-1.69-1.69Z"/>
    <path id="Path-4" data-name="Path" class="cls-1" d="m53.38,48.31h-6.76c-.93,0-1.69.76-1.69,1.69s.76,1.69,1.69,1.69h6.76c.93,0,1.69-.76,1.69-1.69s-.76-1.69-1.69-1.69Z"/>
    <path id="Path-5" data-name="Path" class="cls-1" d="m53.38,55.07h-6.76c-.93,0-1.69.76-1.69,1.69s.76,1.69,1.69,1.69h6.76c.93,0,1.69-.76,1.69-1.69s-.76-1.69-1.69-1.69Z"/>
    <path id="Path-6" data-name="Path" class="cls-1" d="m53.38,61.84h-6.76c-.93,0-1.69.76-1.69,1.69s.76,1.69,1.69,1.69h6.76c.93,0,1.69-.76,1.69-1.69s-.76-1.69-1.69-1.69Z"/>
    <path id="Path-7" data-name="Path" class="cls-1" d="m53.38,68.6h-6.76c-.93,0-1.69.76-1.69,1.69s.76,1.69,1.69,1.69h6.76c.93,0,1.69-.76,1.69-1.69s-.76-1.69-1.69-1.69Z"/>
    <path id="Path-8" data-name="Path" class="cls-1" d="m53.38,75.36h-6.76c-.93,0-1.69.76-1.69,1.69s.76,1.69,1.69,1.69h6.76c.93,0,1.69-.76,1.69-1.69s-.76-1.69-1.69-1.69Z"/>
    <path id="Path-9" data-name="Path" class="cls-1" d="m24.64,28.02h-3.38c-.93,0-1.69.76-1.69,1.69s.76,1.69,1.69,1.69h3.38c.93,0,1.69-.76,1.69-1.69s-.76-1.69-1.69-1.69Z"/>
    <path id="Path-10" data-name="Path" class="cls-1" d="m34.78,28.02h-3.38c-.93,0-1.69.76-1.69,1.69s.76,1.69,1.69,1.69h3.38c.93,0,1.69-.76,1.69-1.69s-.76-1.69-1.69-1.69Z"/>
    <path id="Path-11" data-name="Path" class="cls-1" d="m24.64,38.16h-3.38c-.93,0-1.69.76-1.69,1.69s.76,1.69,1.69,1.69h3.38c.93,0,1.69-.76,1.69-1.69s-.76-1.69-1.69-1.69Z"/>
    <path id="Path-12" data-name="Path" class="cls-1" d="m34.78,38.16h-3.38c-.93,0-1.69.76-1.69,1.69s.76,1.69,1.69,1.69h3.38c.93,0,1.69-.76,1.69-1.69s-.76-1.69-1.69-1.69Z"/>
    <path id="Path-13" data-name="Path" class="cls-1" d="m24.64,48.31h-3.38c-.93,0-1.69.76-1.69,1.69s.76,1.69,1.69,1.69h3.38c.93,0,1.69-.76,1.69-1.69s-.76-1.69-1.69-1.69Z"/>
    <path id="Path-14" data-name="Path" class="cls-1" d="m34.78,48.31h-3.38c-.93,0-1.69.76-1.69,1.69s.76,1.69,1.69,1.69h3.38c.93,0,1.69-.76,1.69-1.69s-.76-1.69-1.69-1.69Z"/>
    <path id="Path-15" data-name="Path" class="cls-1" d="m24.64,58.45h-3.38c-.93,0-1.69.76-1.69,1.69s.76,1.69,1.69,1.69h3.38c.93,0,1.69-.76,1.69-1.69s-.76-1.69-1.69-1.69Z"/>
    <path id="Path-16" data-name="Path" class="cls-1" d="m34.78,58.45h-3.38c-.93,0-1.69.76-1.69,1.69s.76,1.69,1.69,1.69h3.38c.93,0,1.69-.76,1.69-1.69s-.76-1.69-1.69-1.69Z"/>
    <path id="Path-17" data-name="Path" class="cls-1" d="m24.64,68.6h-3.38c-.93,0-1.69.76-1.69,1.69s.76,1.69,1.69,1.69h3.38c.93,0,1.69-.76,1.69-1.69s-.76-1.69-1.69-1.69Z"/>
    <path id="Path-18" data-name="Path" class="cls-1" d="m34.78,68.6h-3.38c-.93,0-1.69.76-1.69,1.69s.76,1.69,1.69,1.69h3.38c.93,0,1.69-.76,1.69-1.69s-.76-1.69-1.69-1.69Z"/>
    <path id="Path-19" data-name="Path" class="cls-1" d="m24.64,78.74h-3.38c-.93,0-1.69.76-1.69,1.69s.76,1.69,1.69,1.69h3.38c.93,0,1.69-.76,1.69-1.69s-.76-1.69-1.69-1.69Z"/>
    <path id="Path-20" data-name="Path" class="cls-1" d="m34.78,78.74h-3.38c-.93,0-1.69.76-1.69,1.69s.76,1.69,1.69,1.69h3.38c.93,0,1.69-.76,1.69-1.69s-.76-1.69-1.69-1.69Z"/>
    <path id="Path-21" data-name="Path" class="cls-1" d="m70.29,38.16h-3.38c-.93,0-1.69.76-1.69,1.69s.76,1.69,1.69,1.69h3.38c.93,0,1.69-.76,1.69-1.69s-.76-1.69-1.69-1.69Z"/>
    <path id="Path-22" data-name="Path" class="cls-1" d="m68.6,48.31h-3.38c-.93,0-1.69.76-1.69,1.69s.76,1.69,1.69,1.69h3.38c.93,0,1.69-.76,1.69-1.69s-.76-1.69-1.69-1.69Z"/>
    <path id="Path-23" data-name="Path" class="cls-1" d="m78.74,48.31h-3.38c-.93,0-1.69.76-1.69,1.69s.76,1.69,1.69,1.69h3.38c.93,0,1.69-.76,1.69-1.69s-.76-1.69-1.69-1.69Z"/>
    <path id="Path-24" data-name="Path" class="cls-1" d="m68.6,55.07h-3.38c-.93,0-1.69.76-1.69,1.69s.76,1.69,1.69,1.69h3.38c.93,0,1.69-.76,1.69-1.69s-.76-1.69-1.69-1.69Z"/>
    <path id="Path-25" data-name="Path" class="cls-1" d="m78.74,55.07h-3.38c-.93,0-1.69.76-1.69,1.69s.76,1.69,1.69,1.69h3.38c.93,0,1.69-.76,1.69-1.69s-.76-1.69-1.69-1.69Z"/>
    <path id="Path-26" data-name="Path" class="cls-1" d="m68.6,61.84h-3.38c-.93,0-1.69.76-1.69,1.69s.76,1.69,1.69,1.69h3.38c.93,0,1.69-.76,1.69-1.69s-.76-1.69-1.69-1.69Z"/>
    <path id="Path-27" data-name="Path" class="cls-1" d="m78.74,61.84h-3.38c-.93,0-1.69.76-1.69,1.69s.76,1.69,1.69,1.69h3.38c.93,0,1.69-.76,1.69-1.69s-.76-1.69-1.69-1.69Z"/>
    <path id="Path-28" data-name="Path" class="cls-1" d="m68.6,68.6h-3.38c-.93,0-1.69.76-1.69,1.69s.76,1.69,1.69,1.69h3.38c.93,0,1.69-.76,1.69-1.69s-.76-1.69-1.69-1.69Z"/>
    <path id="Path-29" data-name="Path" class="cls-1" d="m78.74,68.6h-3.38c-.93,0-1.69.76-1.69,1.69s.76,1.69,1.69,1.69h3.38c.93,0,1.69-.76,1.69-1.69s-.76-1.69-1.69-1.69Z"/>
    <path id="Path-30" data-name="Path" class="cls-1" d="m68.6,75.36h-3.38c-.93,0-1.69.76-1.69,1.69s.76,1.69,1.69,1.69h3.38c.93,0,1.69-.76,1.69-1.69s-.76-1.69-1.69-1.69Z"/>
    <path id="Path-31" data-name="Path" class="cls-1" d="m78.74,75.36h-3.38c-.93,0-1.69.76-1.69,1.69s.76,1.69,1.69,1.69h3.38c.93,0,1.69-.76,1.69-1.69s-.76-1.69-1.69-1.69Z"/>
    <path id="Shape" class="cls-1" d="m97.34,85.51h-11.84v-42.27c0-.93-.76-1.69-1.69-1.69h-5.07v-8.45c0-.93-.76-1.69-1.69-1.69h-15.22v-8.45c0-.93-.76-1.69-1.69-1.69h-8.45v-8.45c0-.93-.76-1.69-1.69-1.69s-1.69.76-1.69,1.69v8.45h-6.76v-8.45c0-.6-.32-1.16-.84-1.46-.52-.3-1.16-.3-1.69,0l-23.67,13.53c-.53.3-.85.86-.85,1.47v59.18H2.66c-.93,0-1.69.76-1.69,1.69s.76,1.69,1.69,1.69h94.69c.93,0,1.69-.76,1.69-1.69s-.76-1.69-1.69-1.69h0ZM17.87,27.31l20.29-11.59v69.79h-20.29V27.31Zm23.67-2.67h16.91v60.87h-16.91V24.64Zm20.29,60.87v-50.73h13.53v8.45c0,.93.76,1.69,1.69,1.69h5.07v40.58h-20.29Z"/>
  </g>
</svg>