<?xml version="1.0" encoding="UTF-8"?>
<svg id="Layer_1" data-name="Layer 1" xmlns="http://www.w3.org/2000/svg" viewBox="0 0 100 100">
  <defs>
    <style>
      .cls-1 {
        fill: #1f6c8d;
      }
    </style>
  </defs>
  <g id="Group-3">
    <g id="Shape-2">
      <path id="Shape" class="cls-1" d="m46.29,8.53c2.1-1.95,5.34-1.99,7.49-.1,4.86,4.26,9.4,7.08,13.59,8.48,4.18,1.39,8.63,2.46,13.34,3.21,2.72.43,4.72,2.77,4.72,5.53v33.85c0,6.59-3.16,12.77-8.5,16.63l-20.38,14.72c-3.91,2.82-9.19,2.82-13.1,0l-20.38-14.72c-5.34-3.86-8.5-10.04-8.5-16.63V25.71c0-2.77,2.03-5.13,4.78-5.53,4.17-.62,8.6-1.71,13.28-3.27,4.52-1.51,8.82-4.06,12.88-7.67l.78-.71Zm5.03,2.7c-.72-.63-1.8-.62-2.51.05l-.81.74c-4.45,3.95-9.18,6.76-14.2,8.43-4.88,1.63-9.52,2.77-13.92,3.42-.91.14-1.59.92-1.59,1.84v33.78c0,5.39,2.59,10.45,6.96,13.61l20.38,14.72c2.61,1.88,6.13,1.88,8.73,0l20.38-14.72c4.37-3.16,6.96-8.22,6.96-13.61V25.65c0-.92-.67-1.7-1.57-1.84-4.91-.78-9.56-1.9-13.93-3.36-4.71-1.57-9.66-4.65-14.87-9.21h0Zm16.8,28.53c.66.68.69,1.74.11,2.46l-.16.17-23.24,22.38c-.67.64-1.69.69-2.41.15l-.17-.15-10.33-9.95c-.74-.71-.76-1.89-.05-2.64.66-.68,1.72-.76,2.46-.2l.18.15,9.03,8.7,21.95-21.13c.74-.71,1.92-.69,2.64.05h0Z"/>
    </g>
  </g>
</svg>