<?xml version="1.0" encoding="UTF-8"?>
<svg id="Layer_1" data-name="Layer 1" xmlns="http://www.w3.org/2000/svg" viewBox="0 0 100 100">
  <defs>
    <style>
      .cls-1 {
        fill: #1f6c8d;
      }
    </style>
  </defs>
  <g id="Group-11">
    <g id="Group-10">
      <g id="Group-9">
        <path id="Shape" class="cls-1" d="m97.47,10.57c0-3.96-3.23-7.18-7.19-7.18-1.92,0-3.73.75-5.09,2.1l-8.77,8.74-18.11-6.02c-.46-.15-.97-.09-1.38.19l-4.76,3.16c-.43.29-.69.76-.71,1.27-.01.51.22,1,.63,1.31l15.12,11.31-10.02,11.05-10.27-1.46c-.5-.07-.99.09-1.35.45l-3.17,3.16c-.38.38-.54.93-.43,1.45.11.53.49.96.99,1.15l11.94,4.47,2.95,10.31c.16.54.58.96,1.13,1.1.13.03.27.05.4.05.42,0,.82-.16,1.12-.46l3.17-3.16c.3-.3.46-.7.46-1.12v-9.08c.56-.7,2.75-2.97,10.93-10.26l11.59,15.54c.31.41.86.65,1.31.64.52-.01.99-.28,1.28-.7l3.17-4.75c.27-.41.34-.91.18-1.38l-6.01-17.99c4.22-3.75,7.41-7.12,8.98-8.86,1.2-1.32,1.87-3.04,1.87-4.82v-.21Zm-3.17.21c0,1-.37,1.96-1.05,2.7-1.62,1.79-5.02,5.37-9.52,9.3-.48.42-.66,1.09-.46,1.69l6.1,18.25-1.49,2.24-11.28-15.13c-.27-.36-.67-.59-1.11-.63-.44-.05-.88.1-1.22.39-13.29,11.79-13.29,12.42-13.29,13.36v8.84l-.8.8-2.43-8.49c-.14-.48-.5-.87-.97-1.05l-10.38-3.88.87-.87,10.32,1.47c.53.07,1.05-.12,1.4-.51l11.76-12.96c.3-.33.45-.77.4-1.21-.04-.44-.27-.85-.63-1.11l-14.72-11.01,2.25-1.49,18.3,6.08c.57.19,1.2.04,1.62-.38l9.46-9.44c.76-.76,1.77-1.17,2.84-1.17,2.22,0,4.02,1.8,4.02,4.01v.21Z"/>
        <path id="Shape-2" data-name="Shape" class="cls-1" d="m16.77,95.17c.42,0,.82-.17,1.12-.47.54-.54,13.12-13.26,13.12-21.69,0-7.93-5.32-12.66-14.24-12.66s-14.24,4.73-14.24,12.66c0,8.42,12.58,21.15,13.12,21.69.3.3.7.47,1.12.47h0Zm0-31.64c4.14,0,11.08,1.23,11.08,9.49,0,5.34-7.19,14.13-11.08,18.29-3.89-4.16-11.08-12.94-11.08-18.29,0-8.26,6.94-9.49,11.08-9.49Z"/>
        <path id="Shape-3" data-name="Shape" class="cls-1" d="m22.96,73.01c0-3.49-2.84-6.33-6.33-6.33s-6.33,2.84-6.33,6.33,2.84,6.33,6.33,6.33,6.33-2.84,6.33-6.33Zm-9.49,0c0-1.75,1.42-3.16,3.16-3.16s3.16,1.42,3.16,3.16-1.42,3.16-3.16,3.16-3.16-1.42-3.16-3.16Z"/>
        <path id="Path" class="cls-1" d="m75.31,77.56c-.31-6.06-12.2-9.25-24.78-12.63-7.79-2.09-19.55-5.25-19.52-7.87,0-.61,1.05-3.85,20.89-7.98l-.64-3.1c-20.67,4.3-23.37,8.16-23.41,11.04-.06,4.84,8.27,7.32,21.86,10.97,9.39,2.52,22.25,5.98,22.44,9.73.1,1.92-3.29,7.32-36.78,15.82l.78,3.07c35.12-8.91,39.38-14.86,39.16-19.05h0Z"/>
        <polygon id="Path-2" data-name="Path" class="cls-1" points="29.29 93.44 32.45 93.44 32.45 96.61 29.29 96.61 29.29 93.44"/>
        <polygon id="Path-3" data-name="Path" class="cls-1" points="22.96 93.44 26.12 93.44 26.12 96.61 22.96 96.61 22.96 93.44"/>
      </g>
    </g>
  </g>
</svg>