<?xml version="1.0" encoding="UTF-8"?>
<svg id="Layer_1" data-name="Layer 1" xmlns="http://www.w3.org/2000/svg" viewBox="0 0 100 100">
  <defs>
    <style>
      .cls-1 {
        fill: #1f6c8d;
      }
    </style>
  </defs>
  <path class="cls-1" d="m14.89,94.03c-.62,0-1.17-.39-1.39-.97l-9.93-26.82c-.28-.76.11-1.62.88-1.9l14.96-5.55c.16-.06.33-.09.51-.09.62,0,1.17.39,1.39.97l1.03,2.79.46-.16c2.79-.96,5.19-2.2,7.3-3.3,1.66-.86,3.08-1.6,4.41-2.05,1.25-.44,2.31-.72,3.44-.94,1.35-.25,2.84-.4,4.55-.45.31,0,.61-.01.91-.01,4.23,0,6.99.9,9.66,1.76,1.51.49,2.9.94,4.42,1.17l12.53.96c1.71.13,3.11.93,3.94,2.26.18.29.33.6.44.92l.12-.52.54.82,15.86-6.42c.45-.17.94-.25,1.43-.25.56,0,1.1.11,1.61.32,1.03.43,1.83,1.22,2.26,2.24.41.99.41,2.04,0,3.04-.39.94-1.12,1.76-2.06,2.32l-29.01,17.19c-3.66,2-6.29,3.35-9.22,3.89-.9.16-1.78.24-2.7.24-2.27,0-4.83-.5-8.05-1.58l-8.09-2.71c-.6-.13-1.19-.19-1.76-.19-.18,0-.37,0-.55.02-.73.05-1.39.2-1.95.44l-2.98,1.27,1.39,3.76c.28.76-.11,1.62-.88,1.9l-14.96,5.55c-.16.06-.33.09-.51.09Zm-8.03-27.42l8.9,24.05,12.18-4.52-8.9-24.05-12.18,4.52Zm28.47,11.44c.81,0,1.64.09,2.39.25l8.39,2.81c2.91.97,5.17,1.43,7.14,1.43.74,0,1.45-.06,2.16-.19,2.49-.45,4.92-1.71,8.34-3.58l28.91-17.14c.4-.24.7-.55.84-.89.1-.26.1-.54,0-.79-.12-.29-.36-.53-.65-.65-.15-.06-.31-.09-.48-.09-.13,0-.26.02-.38.06l-18.03,7.3-.08.12c-.79,1.16-2.06,1.94-3.68,2.26l-15.79,3.08c-.09.02-.18.03-.28.03-.71,0-1.32-.5-1.45-1.2-.07-.39,0-.78.23-1.11s.56-.55.94-.62l15.79-3.08c.94-.18,1.61-.61,1.91-1.21.12-.24.18-.52.16-.8-.01-.26-.1-.52-.24-.75-.32-.51-.92-.83-1.67-.88l-12.53-.96-.2-.03c-1.76-.26-3.27-.75-4.87-1.27-2.38-.77-5.04-1.64-8.84-1.64-.25,0-.51,0-.78.01-1.52.04-2.86.18-4.08.41-.99.19-1.93.44-3.03.83-1.09.37-2.44,1.07-3.99,1.87-2.2,1.14-4.67,2.42-7.62,3.44l-.48.17,5.45,14.72,2.85-1.22c.87-.37,1.84-.59,2.91-.67.25-.02.5-.03.75-.03Zm20.62-25.16c-1.97,0-3.83-.77-5.23-2.18-1.41-1.42-2.19-3.28-2.19-5.25V13.4c0-1.97.77-3.83,2.18-5.24,1.42-1.42,3.28-2.19,5.24-2.19h26.89c1.97,0,3.83.77,5.23,2.18,1.41,1.42,2.19,3.28,2.19,5.25v32.06c0,1.97-.77,3.83-2.18,5.24-1.42,1.41-3.28,2.19-5.24,2.19h-26.89Zm0-43.95c-1.19,0-2.31.46-3.15,1.3-.85.85-1.31,1.97-1.31,3.16v32.06c0,1.19.46,2.31,1.3,3.15s1.97,1.31,3.16,1.31h26.89c1.19,0,2.31-.46,3.15-1.3.84-.85,1.31-1.97,1.31-3.16V13.4c0-1.19-.46-2.31-1.3-3.15-.84-.85-1.97-1.31-3.16-1.31h-26.89Zm24.44,36.58c-1.08,0-1.96-.88-1.96-1.96s.88-1.96,1.96-1.96,1.96.88,1.96,1.96-.88,1.96-1.96,1.96Zm-7.26-.04c-.29,0-.57-.08-.81-.25-.68-.45-.86-1.37-.42-2.05l7.26-10.99c.27-.41.73-.66,1.23-.66.29,0,.57.08.81.25.68.45.87,1.37.42,2.05l-7.26,10.99c-.27.41-.73.66-1.23.66Zm-14.66-.56c-.82,0-1.48-.67-1.48-1.48s.66-1.48,1.48-1.48h8c.82,0,1.48.67,1.48,1.48s-.66,1.48-1.48,1.48h-8Zm0-9.13c-.82,0-1.48-.67-1.48-1.48s.66-1.48,1.48-1.48h8c.82,0,1.48.67,1.48,1.48s-.66,1.48-1.48,1.48h-8Zm14.66-.37c-1.08,0-1.96-.88-1.96-1.96s.88-1.96,1.96-1.96,1.96.88,1.96,1.96-.88,1.96-1.96,1.96Zm-14.66-8.75c-.82,0-1.48-.67-1.48-1.48s.66-1.48,1.48-1.48h21.86c.82,0,1.48.67,1.48,1.48s-.66,1.48-1.48,1.48h-21.86Zm0-9.13c-.82,0-1.48-.67-1.48-1.48s.66-1.48,1.48-1.48h21.86c.82,0,1.48.67,1.48,1.48s-.66,1.48-1.48,1.48h-21.86Z"/>
</svg>