<?xml version="1.0" encoding="UTF-8"?>
<svg id="Layer_1" data-name="Layer 1" xmlns="http://www.w3.org/2000/svg" viewBox="0 0 100 100">
  <defs>
    <style>
      .cls-1 {
        fill: #1f6c8d;
      }
    </style>
  </defs>
  <g id="Page-1">
    <g id="Group-2">
      <g id="Group">
        <path id="Shape" class="cls-1" d="m73.89,47.49c6.76-7.23,6.12-13.89,5.05-18.28-1.47-6.03-8.19-12.55-16.48-12.55-6.34,0-10.51,3.47-12.45,5.56-1.95-2.09-6.11-5.56-12.45-5.56-8.29,0-15.02,6.52-16.48,12.55-1.06,4.38-1.71,11.05,5.05,18.28,5.72,6.12,22.65,22.52,22.82,22.69.09.09.21.15.32.21.05.03.1.08.17.1.19.07.37.11.57.11s.38-.04.57-.11c.06-.02.1-.07.17-.1.11-.06.23-.11.32-.21.19-.17,17.12-16.57,22.84-22.69h0Zm-23.88,19.46c-3.8-3.7-16.81-16.37-21.65-21.54-5.69-6.08-5.29-11.47-4.32-15.47,1-4.12,5.99-10.22,13.52-10.22s11.03,5.52,11.18,5.75c.44.65,1.27.83,1.95.49.05-.02.1-.03.16-.06h.01c.12-.08.21-.19.3-.3.04-.04.09-.07.12-.12,0,0,0-.01.01-.01.21-.3,4.01-5.74,11.17-5.74,7.53,0,12.52,6.09,13.52,10.22.98,4.01,1.36,9.39-4.32,15.47-4.84,5.18-17.85,17.85-21.65,21.54h0Z"/>
        <path id="Path" class="cls-1" d="m16.45,49c-.32-3.11-.98-9.6-1.12-11-.2-1.89-.58-3.4-1.89-5.11-1.07-1.42-3.46-1.67-5.18-1.2-2.03.56-3.37,2.09-3.59,4.1-.35,3.18-1.3,12.66-1.51,18.27-.21,5.49,5.24,12.27,8.15,15.91l.75.94c2.05,2.62,3.88,6.92,4.78,11.22.15.72.78,1.22,1.49,1.22.1,0,.21-.01.31-.03.82-.18,1.35-.98,1.18-1.8-1-4.79-3.01-9.45-5.37-12.46l-.77-.97c-2.29-2.85-7.65-9.54-7.49-13.88.21-5.51,1.16-14.9,1.5-18.06.05-.44.22-1.05,1.11-1.41.97-.38,2.01-.14,2.19.01.79,1.05,1.1,1.92,1.28,3.59.16,1.5.92,8.93,1.2,11.66-.51.41-.94.92-1.23,1.54-1.35,2.77.75,6.77,1.19,7.54.03.06.07.11.11.18l5.14,6.75c.51.67,1.47.8,2.15.29.67-.51.8-1.47.29-2.15l-5.08-6.66c-.75-1.36-1.51-3.68-1.05-4.61.21-.42.53-.67,1.01-.77.7-.15,1.45.09,1.73.32,1.14.95,6.99,6.4,8.48,8.08.79.9,1.69,4.56,2.66,10.92l.15.98c.67,4.38,1.36,8.48,2.58,10.27.29.44.77.67,1.26.67.29,0,.59-.08.85-.26.7-.48.89-1.43.41-2.12-.93-1.37-1.72-6.53-2.09-9.02l-.15-.98c-.96-6.28-1.9-10.81-3.38-12.49-1.59-1.8-7.6-7.39-8.81-8.4-.82-.7-2.03-1.08-3.23-1.07h0Z"/>
        <path id="Path-2" data-name="Path" class="cls-1" d="m85.55,69.02c-2.36,3.01-4.36,7.67-5.37,12.46-.18.82.35,1.64,1.18,1.8.1.02.21.03.31.03.71,0,1.34-.49,1.49-1.22.9-4.29,2.73-8.59,4.78-11.22l.75-.94c2.93-3.65,8.36-10.42,8.15-15.91-.21-5.6-1.17-15.09-1.51-18.28-.22-2.01-1.56-3.54-3.59-4.1-1.71-.47-4.1-.22-5.18,1.2-1.3,1.72-1.69,3.23-1.89,5.11-.15,1.4-.81,7.88-1.12,11-1.2,0-2.41.38-3.23,1.07-1.21,1.01-7.22,6.6-8.81,8.4-1.49,1.68-2.43,6.21-3.38,12.49l-.15.98c-.37,2.48-1.17,7.64-2.09,9.02-.48.7-.29,1.65.41,2.12.26.18.56.26.85.26.49,0,.97-.24,1.26-.67,1.22-1.79,1.92-5.88,2.58-10.27l.15-.98c.97-6.35,1.86-10.03,2.66-10.91,1.49-1.68,7.34-7.13,8.48-8.08.28-.23,1.03-.47,1.73-.32.48.1.8.35,1.01.77.48.97-.33,3.29-1.05,4.61l-5.08,6.66c-.51.68-.38,1.62.29,2.15.68.51,1.62.38,2.15-.29l5.14-6.75c.04-.05.08-.11.11-.18.44-.77,2.54-4.77,1.19-7.54-.3-.61-.72-1.14-1.23-1.54.28-2.73,1.04-10.16,1.2-11.66.18-1.67.49-2.54,1.25-3.56.21-.18,1.25-.43,2.22-.04.9.35,1.06.97,1.11,1.41.34,3.16,1.29,12.54,1.5,18.06.17,4.34-5.2,11.03-7.49,13.88l-.77.97Z"/>
      </g>
    </g>
  </g>
</svg>