<?xml version="1.0" encoding="UTF-8"?>
<svg id="Layer_1" data-name="Layer 1" xmlns="http://www.w3.org/2000/svg" viewBox="0 0 100 100">
  <defs>
    <style>
      .cls-1 {
        fill: #1f6c8d;
      }
    </style>
  </defs>
  <g id="Page-1">
    <g id="Group-15">
      <g id="Group-8">
        <path id="Shape" class="cls-1" d="m77.04,34.16c-8.72,0-15.8,7.07-15.8,15.8s7.07,15.8,15.8,15.8,15.8-7.07,15.8-15.8-7.07-15.8-15.8-15.8h0Zm9.49,22.26c-.24.94-.83,2.3-2.24,3.05-.61.33-1.28.49-2.01.49-1.16,0-2.44-.41-3.86-1.22-1.38-.79-2.11-.79-2.32-.69-.24.14-.43.75-.43.98l-3.66-.22c0-.14.06-.87.41-1.73.12-.33.3-.65.53-.98.53-1.42-.2-2.52-1.57-4.33-.26-.37-.55-.73-.81-1.12h-2.48c-.3,0-.55-.24-.55-.55v-1.95c0-.3.24-.55.55-.55h1.08l-.06-.3c-.26-1.83.71-5.18,3.58-6.55,4.78-2.26,8.38.65,9.98,2.99.26.39.12.91-.28,1.14l-1.83,1c-.35.2-.79.08-1.04-.24-.77-1.08-2.58-2.87-5.27-1.59-1.3.63-1.57,2.36-1.52,2.74.04.26.14.53.26.81h3.92c.3,0,.55.24.55.55v1.95c0,.3-.24.55-.55.55h-1.85c.71,1.04,1.4,2.28,1.61,3.68,1.06.08,2.24.47,3.52,1.2,1.28.73,2.07.81,2.34.67.14-.08.26-.26.35-.47.12-.33.45-.53.79-.51l2.11.16c.53.06.87.55.75,1.04h0Z"/>
        <path id="Shape-2" data-name="Shape" class="cls-1" d="m49.9,38.92c8.72,0,15.8-7.07,15.8-15.8s-7.07-15.8-15.8-15.8-15.8,7.07-15.8,15.8,7.05,15.8,15.8,15.8Zm-4.76-11.75l2.01-.63c.33-.1.71.02.89.3.43.67,1.1.89,1.12.89.85.24,1.46-.02,1.81-.28.18-.14.35-.35.45-.61.47-1.24-.96-1.95-1.12-2.03l-.08-.04-2.62-1.38c-2.2-1.16-2.66-3.29-2.6-4.39.1-1.89,1.04-3.37,2.64-4.15.08-.04.16-.06.24-.1v-1.18c0-.3.24-.55.55-.55h2.56c.3,0,.55.24.55.55v1.06c.26.08.53.18.77.3,1.12.53,1.81,1.3,2.22,1.87.28.43.1,1-.39,1.18l-2.2.87c-.2.08-.41.02-.55-.14s-.35-.35-.67-.51c-.53-.24-1.1-.28-1.52-.06-.26.12-.55.33-.59,1.06,0,.12.06.63.65.96l2.58,1.36c1.63.77,4.29,3.13,2.95,6.63-.35.91-.94,1.69-1.71,2.26-.49.37-1.04.63-1.59.81v1.44c0,.3-.24.55-.55.55h-2.56c-.3,0-.55-.24-.55-.55v-1.5c-.98-.37-2.42-1.26-3.23-2.91-.16-.43.08-.94.53-1.08h0Z"/>
        <path id="Shape-3" data-name="Shape" class="cls-1" d="m22.96,34.2c-8.72,0-15.8,7.07-15.8,15.8s7.07,15.8,15.8,15.8,15.8-7.07,15.8-15.8-7.07-15.8-15.8-15.8h0Zm6.04,24.64c-1.28.24-2.48.35-3.6.35-2.76,0-5-.71-6.73-2.13-1.2-1-1.93-2.18-2.4-3.31h-1.93c-.3,0-.55-.24-.55-.55v-1.95c0-.3.24-.55.55-.55h1.18c-.04-.43-.04-.71-.02-.75,0-.22.02-.45.04-.65h-1.18c-.3,0-.55-.24-.55-.55v-1.95c0-.3.24-.55.55-.55h1.79c.51-1.36,1.34-2.5,2.48-3.4,3.35-2.62,8.38-2.09,10.37-1.75.45.08.75.53.63.98l-.24.98-.24,1.02-.18.73.18-.73c-.1.41-.49.65-.89.59-1.85-.3-5.37-.49-7.36,1.06-.2.16-.37.33-.53.51h2.95c.3,0,.55.24.55.55v1.95c0,.3-.24.55-.55.55h-4.09c-.02.22-.02.47-.02.71,0,.02,0,.28.06.69h4.07c.3,0,.55.24.55.55v1.95c0,.3-.24.55-.55.55h-2.81c.16.18.33.35.53.51,1.5,1.24,4,1.59,7.24,1,.43-.08.83.18.91.61l.45,2.03c.1.47-.2.89-.65.98h0Z"/>
        <path id="Shape-4" data-name="Shape" class="cls-1" d="m49.96,61.08c-8.72,0-15.8,7.07-15.8,15.8s7.07,15.8,15.8,15.8,15.8-7.07,15.8-15.8-7.05-15.8-15.8-15.8Zm7.05,7.07l-5.1,10.16h3.58c.3,0,.55.24.55.55v1.95c0,.3-.24.55-.55.55h-3.7v1.28h3.7c.3,0,.55.24.55.55v1.95c0,.3-.24.55-.55.55h-3.7v1.18c0,.45-.37.79-.79.79h-2.07c-.45,0-.79-.37-.79-.79v-1.18h-3.7c-.3,0-.55-.24-.55-.55v-1.95c0-.3.24-.55.55-.55h3.7v-1.28h-3.7c-.3,0-.55-.24-.55-.55v-1.95c0-.3.24-.55.55-.55h3.58l-5.1-10.16c-.2-.39-.04-.87.35-1.08l1.85-.94c.39-.2.87-.04,1.08.35l3.78,7.52,3.78-7.52c.2-.39.67-.55,1.08-.35l1.85.94c.39.2.55.69.35,1.08h0Z"/>
      </g>
    </g>
  </g>
</svg>