<?xml version="1.0" encoding="UTF-8"?>
<svg id="Layer_1" data-name="Layer 1" xmlns="http://www.w3.org/2000/svg" viewBox="0 0 100 100">
  <defs>
    <style>
      .cls-1 {
        fill: #1f6c8d;
      }
    </style>
  </defs>
  <g id="Page-1">
    <g id="Group-14">
      <g id="Group-13">
        <path id="Shape" class="cls-1" d="m35.28,90.62c-.4,0-.79-.13-1.09-.4l-22.59-20.77c-.2-.18-.35-.42-.45-.67l-6.91-19.12c-.59-1.34-.54-2.96.15-4.36.7-1.4,1.97-2.41,3.49-2.77,1.78-.44,3.63.08,4.95,1.4.4.4.73.85.97,1.34l6,11.76c1.07-.41,2.29-.4,3.4.09l10.46,4.55c2.22.97,3.94,2.81,4.75,5.06l2.73,7.62,4.4,4.4c.66.66.66,1.73,0,2.4l-8.93,8.93c-.35.35-.86.55-1.35.55h0Zm-21.08-23.39l21.09,19.39,6.68-6.68-3.48-3.48c-.18-.18-.31-.39-.4-.62l-2.86-7.98c-.49-1.37-1.55-2.5-2.91-3.1l-10.46-4.55c-.52-.22-.99-.02-1.23.23,0,0-.08.09-.11.13,0,0-.01.02-.02.02-.08.11-.14.25-.18.41-.11.5.13,1.01.58,1.25l9.39,4.82c.83.43,1.16,1.45.73,2.28-.43.83-1.45,1.16-2.28.73l-9.39-4.82c-1.83-.95-2.79-3.01-2.34-5.01.06-.27.14-.53.25-.78l-6.48-12.69c-.09-.17-.2-.33-.34-.47-.47-.47-1.12-.65-1.75-.5-.56.13-1.01.49-1.26.99-.25.51-.27,1.07-.04,1.6l6.81,18.83Z"/>
        <path id="Shape-2" data-name="Shape" class="cls-1" d="m35.43,90.56c-.29,0-.58-.07-.84-.22l-.53-.3c-.11-.06-.21-.14-.31-.23l-3.67-3.38c-.34-.31-.53-.74-.54-1.2-.01-.46.16-.9.48-1.23l9.07-9.3c.32-.32.75-.51,1.2-.51.51-.02.89.18,1.21.5l4.06,4.06c.66.66.66,1.73,0,2.4l-8.93,8.93c-.33.33-.76.5-1.2.5h0Zm-1.77-5.44l1.63,1.5,6.68-6.68-1.65-1.65-6.66,6.82Z"/>
        <path id="Path" class="cls-1" d="m22.54,60.36c-.81,0-1.52-.58-1.67-1.4l-1.5-8.62c-.11-.64-.66-1.11-1.31-1.12-.74.01-1.04.44-1.17.64-.12.2-.37.71-.06,1.33l.4.79c.43.83.09,1.85-.74,2.28-.83.43-1.85.09-2.28-.74l-.4-.79c-.76-1.49-.69-3.23.2-4.66.89-1.42,2.34-2.26,4.09-2.23,2.27.04,4.21,1.69,4.59,3.93l1.5,8.62c.16.92-.46,1.8-1.38,1.96-.1.02-.2.03-.29.03h0Z"/>
        <path id="Shape-3" data-name="Shape" class="cls-1" d="m64.67,90.66c-.43,0-.87-.17-1.2-.5l-9.02-9.02c-.66-.66-.66-1.73,0-2.4l4.4-4.4,2.73-7.62c.8-2.25,2.53-4.09,4.75-5.06l10.47-4.55c1.11-.48,2.32-.5,3.4-.09l6.01-11.77c.24-.48.56-.93.96-1.33,1.31-1.31,3.17-1.84,4.96-1.4,1.51.36,2.79,1.37,3.48,2.77.7,1.4.74,3.02.11,4.46l-6.87,19.02c-.09.26-.25.49-.45.67l-22.59,20.77c-.32.3-.73.44-1.14.44h0Zm-6.63-10.72l6.68,6.68,21.09-19.39,6.77-18.73c.27-.62.25-1.19,0-1.7-.25-.51-.7-.86-1.25-.99-.64-.15-1.29.03-1.76.5-.14.14-.25.3-.34.46l-6.48,12.71c.11.25.19.51.25.78.46,2-.5,4.06-2.33,5.01l-9.4,4.83c-.83.43-1.85.1-2.28-.73-.43-.83-.1-1.85.73-2.28l9.39-4.82c.45-.23.7-.75.58-1.24-.04-.16-.1-.3-.2-.44,0,0-.01-.02-.02-.02-.34-.35-.81-.56-1.32-.34l-10.46,4.55c-1.36.59-2.42,1.72-2.91,3.09l-2.86,7.98c-.08.24-.22.45-.4.62l-3.48,3.48Z"/>
        <path id="Shape-4" data-name="Shape" class="cls-1" d="m64.57,90.56c-.44,0-.87-.17-1.2-.5l-8.93-8.93c-.66-.66-.66-1.73,0-2.4l4.06-4.06c.32-.32.75-.5,1.2-.5h.01c.45,0,.89.19,1.2.51l9.07,9.3c.32.33.49.77.48,1.23-.01.46-.21.89-.54,1.2l-3.67,3.38c-.09.09-.2.16-.31.23l-.53.3c-.26.15-.55.22-.84.22h0Zm-6.53-10.62l6.68,6.68,1.63-1.5-6.66-6.82-1.65,1.65Z"/>
        <path id="Path-2" data-name="Path" class="cls-1" d="m77.47,60.36c-.1,0-.19,0-.29-.02-.92-.16-1.54-1.04-1.38-1.96l1.5-8.62c.39-2.24,2.32-3.89,4.59-3.93,1.61-.02,3.21.81,4.09,2.23.89,1.42.96,3.17.2,4.66l-.4.79c-.42.83-1.44,1.16-2.28.74-.83-.42-1.16-1.45-.74-2.28l.4-.79c.31-.61.06-1.13-.06-1.33-.12-.19-.47-.64-1.14-.64h-.02c-.65,0-1.2.48-1.31,1.12l-1.5,8.62c-.15.82-.86,1.4-1.67,1.4h0Z"/>
        <path id="Shape-5" data-name="Shape" class="cls-1" d="m50,56.78c-13.08,0-23.72-10.64-23.72-23.72s10.64-23.72,23.72-23.72,23.72,10.64,23.72,23.72-10.64,23.72-23.72,23.72Zm0-44.05c-11.21,0-20.33,9.12-20.33,20.33s9.12,20.33,20.33,20.33,20.33-9.12,20.33-20.33-9.12-20.33-20.33-20.33Z"/>
        <path id="Shape-6" data-name="Shape" class="cls-1" d="m50,50.77c-1.09,0-2.21-.1-3.31-.31-2.73-.52-5.34-1.7-7.55-3.41-1.17-.91-2.23-1.96-3.13-3.13-2.43-3.13-3.72-6.88-3.72-10.86,0-8.51,6.05-15.82,14.39-17.4,2.22-.41,4.42-.41,6.63,0,8.35,1.58,14.4,8.9,14.4,17.4,0,3.98-1.29,7.73-3.72,10.86-.91,1.17-1.96,2.22-3.13,3.13-2.21,1.71-4.82,2.89-7.54,3.41-1.11.21-2.23.31-3.32.31h0Zm0-32.03c-.89,0-1.79.08-2.69.25-6.74,1.27-11.63,7.19-11.63,14.07,0,3.22,1.04,6.25,3.01,8.78.74.95,1.59,1.8,2.53,2.53,1.79,1.39,3.9,2.34,6.1,2.76,1.79.33,3.58.33,5.38,0,2.19-.42,4.3-1.37,6.09-2.76.95-.73,1.8-1.58,2.53-2.53,1.97-2.53,3.01-5.57,3.01-8.78,0-6.88-4.89-12.8-11.64-14.07-.89-.17-1.8-.25-2.69-.25h0Z"/>
        <path id="Path-3" data-name="Path" class="cls-1" d="m53.01,34.93c-.94,0-1.69-.76-1.69-1.69v-15.92c0-.94.76-1.69,1.69-1.69s1.69.76,1.69,1.69v15.92c0,.94-.76,1.69-1.69,1.69Z"/>
        <path id="Path-4" data-name="Path" class="cls-1" d="m53.01,50.49c-.94,0-1.69-.76-1.69-1.69v-8.22c0-.94.76-1.69,1.69-1.69s1.69.76,1.69,1.69v8.22c0,.94-.76,1.69-1.69,1.69Z"/>
        <path id="Path-5" data-name="Path" class="cls-1" d="m47,34.93c-.94,0-1.69-.76-1.69-1.69v-15.92c0-.94.76-1.69,1.69-1.69s1.69.76,1.69,1.69v15.92c0,.94-.76,1.69-1.69,1.69Z"/>
        <path id="Path-6" data-name="Path" class="cls-1" d="m47,50.49c-.94,0-1.69-.76-1.69-1.69v-8.22c0-.94.76-1.69,1.69-1.69s1.69.76,1.69,1.69v8.22c0,.94-.76,1.69-1.69,1.69Z"/>
        <path id="Path-7" data-name="Path" class="cls-1" d="m40.19,47.41c-.51,0-1.02-.23-1.36-.67-.56-.75-.41-1.81.33-2.37l6.82-5.13c.75-.56,1.81-.41,2.37.33.56.75.41,1.81-.33,2.37l-6.82,5.13c-.3.23-.66.34-1.02.34h0Z"/>
        <path id="Path-8" data-name="Path" class="cls-1" d="m36.71,43.68c-.48,0-.96-.2-1.29-.6-.61-.71-.52-1.78.2-2.39l10.3-8.74c.71-.61,1.78-.52,2.39.2.61.71.52,1.78-.2,2.39l-10.3,8.74c-.32.27-.71.4-1.1.4h0Z"/>
        <path id="Path-9" data-name="Path" class="cls-1" d="m63.3,43.68c-.39,0-.78-.13-1.1-.4l-10.3-8.74c-.71-.61-.8-1.67-.2-2.39.61-.71,1.67-.8,2.39-.2l10.3,8.74c.71.61.8,1.67.2,2.39-.34.39-.81.6-1.29.6h0Z"/>
      </g>
    </g>
  </g>
</svg>