<?xml version="1.0" encoding="UTF-8"?>
<svg id="Layer_1" data-name="Layer 1" xmlns="http://www.w3.org/2000/svg" viewBox="0 0 100 100">
  <defs>
    <style>
      .cls-1 {
        fill: #1f6c8d;
      }
    </style>
  </defs>
  <g id="Page-1">
    <g id="Group-17">
      <g id="Shape-3">
        <path id="Shape" class="cls-1" d="m50,22.13c-15.31,0-27.95,12.64-27.95,27.95s12.64,27.95,27.95,27.95,27.95-12.64,27.95-27.95-12.64-27.95-27.95-27.95Zm-1.66,14.64c-2.99-.17-5.99-.67-8.65-1.33,2.16-5.16,5.16-8.65,8.65-9.48v10.81Zm0,3.33v8.32h-11.31c.17-3.49.67-6.82,1.5-9.82,2.99.83,6.32,1.33,9.82,1.5h0Zm3.33.17c3.49,0,6.82-.5,9.98-1.16.83,2.83,1.33,5.99,1.5,9.48h-11.48v-8.32Zm0-3.33v-10.98c3.66.83,6.82,4.66,8.82,9.82-2.83.67-5.82,1-8.82,1.17h0Zm-15.31-2.5c-1.33-.5-2.5-1.16-3.66-1.83,2.16-2.16,4.82-3.99,7.65-5.16-1.5,1.83-2.83,4.16-3.99,6.99Zm-1,2.99c-1,3.33-1.5,6.99-1.66,10.98h-8.15c.33-4.99,2.16-9.48,4.99-13.31,1.5,1,2.99,1.66,4.82,2.33h0Zm-1.66,14.31c.17,3.83.67,7.32,1.66,10.65-1.83.67-3.49,1.5-4.99,2.33-2.66-3.66-4.49-8.15-4.82-12.98h8.15Zm3.33,0h11.31v8.15c-3.49.17-6.82.5-9.82,1.33-.83-2.83-1.5-5.99-1.5-9.48h0Zm11.31,11.48v10.98c-3.49-.83-6.66-4.49-8.82-9.65,2.83-.67,5.82-1.16,8.82-1.33h0Zm3.33,10.98v-10.98c2.99.17,5.99.5,8.82,1.16-2.16,5.32-5.32,8.99-8.82,9.82h0Zm0-14.31v-8.15h11.31c-.17,3.49-.67,6.66-1.5,9.65-2.99-.83-6.32-1.33-9.82-1.5Zm14.64-8.15h8.15c-.33,4.82-2,9.32-4.82,12.98-1.5-.83-3.16-1.66-4.99-2.33,1-3.33,1.66-6.82,1.66-10.65h0Zm0-3.33c-.17-3.66-.67-7.15-1.5-10.32,1.83-.67,3.66-1.33,5.16-2.16,2.5,3.66,4.16,7.99,4.49,12.64h-8.15v-.17Zm1.5-15.14c-1.33.67-2.66,1.16-3.99,1.66-1.16-2.99-2.5-5.49-4.33-7.49,3.16,1.33,5.99,3.33,8.32,5.82Zm-35.44,33.94c1.16-.67,2.5-1.16,3.83-1.66,1.16,2.83,2.5,5.32,4.16,7.15-3-1.33-5.66-3.16-7.99-5.49Zm27.12,5.49c1.66-2,2.99-4.33,4.16-7.15,1.33.5,2.66,1,3.83,1.66-2.16,2.33-4.82,4.16-7.99,5.49h0Zm-9.48-52.91c2.83,0,4.99-2.33,4.99-4.99,0-2.83-2.33-4.99-4.99-4.99s-4.99,2.33-4.99,4.99c0,2.83,2.16,4.99,4.99,4.99Zm0-6.66c1,0,1.66.83,1.66,1.66s-.83,1.66-1.66,1.66-1.66-.83-1.66-1.66.67-1.66,1.66-1.66Zm0,67.05c-2.83,0-4.99,2.33-4.99,4.99,0,2.83,2.33,4.99,4.99,4.99s4.99-2.33,4.99-4.99-2.16-4.99-4.99-4.99Zm0,6.82c-1,0-1.66-.83-1.66-1.66s.83-1.66,1.66-1.66,1.66.83,1.66,1.66-.67,1.66-1.66,1.66Zm35.27-41.93c-2.83,0-4.99,2.33-4.99,4.99s2.33,4.99,4.99,4.99c2.83,0,4.99-2.33,4.99-4.99,0-2.66-2.16-4.99-4.99-4.99h0Zm0,6.66c-1,0-1.66-.83-1.66-1.66s.83-1.66,1.66-1.66,1.66.83,1.66,1.66-.67,1.66-1.66,1.66Zm-65.55-1.66c0-2.83-2.33-4.99-4.99-4.99-2.83,0-4.99,2.33-4.99,4.99s2.33,4.99,4.99,4.99c2.83,0,4.99-2.16,4.99-4.99Zm-6.66,0c0-1,.83-1.66,1.66-1.66s1.66.83,1.66,1.66-.83,1.66-1.66,1.66-1.66-.67-1.66-1.66ZM59.32,15.81c.33-.83,1.16-1.33,2.16-1,11.15,3.66,20.13,12.48,23.63,23.79.33.83-.17,1.83-1,2.16h-.5c-.67,0-1.33-.5-1.66-1.16-3.33-10.15-11.48-18.3-21.63-21.63-.83-.33-1.16-1.16-1-2.16h0ZM14.56,38.6c3.66-11.31,12.64-20.13,23.79-23.79.83-.33,1.83.17,2.16,1,.33.83-.17,1.83-1,2.16-10.32,3.33-18.3,11.48-21.63,21.63-.17.67-.83,1.16-1.66,1.16h-.5c-1-.33-1.5-1.33-1.16-2.16h0Zm25.96,45.75c-.17.67-.83,1.16-1.66,1.16h-.5c-11.15-3.83-20.13-12.64-23.79-23.96-.33-.83.17-1.83,1-2.16.83-.33,1.83.17,2.16,1,3.33,10.32,11.48,18.3,21.63,21.63,1,.5,1.33,1.5,1.16,2.33h0Zm44.59-22.79c-3.66,11.15-12.48,20.13-23.63,23.79-.17,0-.33.17-.5.17-.67,0-1.33-.5-1.66-1.16-.33-.83.17-1.83,1-2.16,10.15-3.33,18.3-11.48,21.63-21.63.33-.83,1.16-1.33,2.16-1,.83.17,1.33,1.16,1,2h0Z"/>
      </g>
    </g>
  </g>
</svg>