<?xml version="1.0" encoding="UTF-8"?>
<svg id="Layer_1" data-name="Layer 1" xmlns="http://www.w3.org/2000/svg" viewBox="0 0 100 100">
  <defs>
    <style>
      .cls-1 {
        fill: #1f6c8d;
      }
    </style>
  </defs>
  <g id="Group-6">
    <g id="Group-4">
      <path id="Shape" class="cls-1" d="m91.08,53.89c-5.37-1.07-5.52-5.02-5.52-5.22,0-.72-.59-1.31-1.32-1.31h-26.33c-.73,0-1.32.59-1.32,1.32,0,.04-.06,4.2-5.52,5.29-.61.12-1.06.66-1.06,1.29v14.48c0,.57.23,14.15,20.58,22.29.16.06.32.09.49.09s.33-.03.49-.09c20.35-8.14,20.58-21.47,20.58-22.03v-14.83c0-.63-.44-1.17-1.06-1.29h0Zm-1.57,16.11c0,.49-.33,11.95-18.43,19.39-18.11-7.45-18.43-19.15-18.43-19.65v-13.45c4.22-1.21,5.94-4.14,6.43-6.3h24.02c.49,2.13,2.21,5.01,6.42,6.22v13.79h0Z"/>
      <path id="Shape-2" data-name="Shape" class="cls-1" d="m81.59,53.31c-.23-.42-.67-.68-1.15-.68h-18.72c-.48,0-.93.26-1.16.69-1.05,1.92-2.59,3.43-4.59,4.48-.43.23-.7.68-.7,1.17v10.79c0,.1.41,9.83,15.26,16.55.17.08.36.12.54.12s.37-.04.54-.12c14.53-6.56,15.23-15.82,15.26-16.28v-11.13c0-.49-.27-.94-.71-1.17-1.99-1.04-3.53-2.52-4.57-4.41h0Zm2.65,16.63c-.02.32-.6,7.83-13.17,13.71-12.61-5.92-13.17-13.86-13.17-13.9v-10.01c1.88-1.13,3.44-2.65,4.58-4.47h17.21c1.14,1.8,2.66,3.27,4.54,4.39v10.28Z"/>
      <path id="Shape-3" data-name="Shape" class="cls-1" d="m78.97,64.48h-3.95v-3.95c0-.73-.59-1.32-1.32-1.32h-5.27c-.73,0-1.32.59-1.32,1.32v3.95h-3.95c-.73,0-1.32.59-1.32,1.32v5.27c0,.73.59,1.32,1.32,1.32h3.95v3.95c0,.73.59,1.32,1.32,1.32h5.27c.73,0,1.32-.59,1.32-1.32v-3.95h3.95c.73,0,1.32-.59,1.32-1.32v-5.27c0-.73-.59-1.32-1.32-1.32Zm-1.32,5.27h-3.95c-.73,0-1.32.59-1.32,1.32v3.95h-2.63v-3.95c0-.73-.59-1.32-1.32-1.32h-3.95v-2.63h3.95c.73,0,1.32-.59,1.32-1.32v-3.95h2.63v3.95c0,.73.59,1.32,1.32,1.32h3.95v2.63Z"/>
      <path id="Path" class="cls-1" d="m52.59,81.78c-.63-.37-1.44-.15-1.8.48-.71,1.22-2.02,1.98-3.42,1.98-2.18,0-3.95-1.77-3.95-3.95,0-1.64,1-3.09,2.55-3.68.58-.22.93-.82.83-1.43l-2.08-13.52c-.11-.72-.77-1.22-1.5-1.1-.72.11-1.21.78-1.1,1.5l1.93,12.56c-1.99,1.17-3.26,3.33-3.26,5.67,0,3.63,2.95,6.58,6.58,6.58,2.34,0,4.53-1.26,5.7-3.29.36-.63.15-1.44-.48-1.8h0Z"/>
      <path id="Path-2" data-name="Path" class="cls-1" d="m44.05,20.12l-1.93,12.56c-.11.72.38,1.39,1.1,1.5.72.11,1.39-.38,1.5-1.1l2.08-13.52c.09-.61-.25-1.21-.83-1.43-1.55-.59-2.55-2.03-2.55-3.68,0-2.18,1.77-3.95,3.95-3.95s3.95,1.77,3.95,3.95c0,1.64-1,3.09-2.55,3.68-.58.22-.93.82-.83,1.43l2.08,13.52c.1.65.66,1.12,1.3,1.12.07,0,.13,0,.2-.02.72-.11,1.21-.78,1.1-1.5l-1.93-12.56c2.01-1.17,3.26-3.29,3.26-5.67,0-3.63-2.95-6.58-6.58-6.58s-6.58,2.95-6.58,6.58c0,2.38,1.25,4.51,3.26,5.67h0Z"/>
      <path id="Path-3" data-name="Path" class="cls-1" d="m20.12,50.69l12.56,1.93c.72.11,1.39-.38,1.5-1.1.11-.72-.38-1.39-1.1-1.5l-13.52-2.08c-.62-.1-1.21.25-1.43.83-.59,1.55-2.03,2.55-3.68,2.55-2.18,0-3.95-1.77-3.95-3.95s1.77-3.95,3.95-3.95c1.64,0,3.09,1,3.68,2.55.22.58.82.93,1.43.83l13.52-2.08c.72-.11,1.21-.78,1.1-1.5-.11-.72-.77-1.21-1.5-1.1l-12.56,1.93c-1.17-1.99-3.33-3.26-5.67-3.26-3.63,0-6.58,2.95-6.58,6.58s2.95,6.58,6.58,6.58c2.34,0,4.5-1.28,5.67-3.26h0Z"/>
      <path id="Path-4" data-name="Path" class="cls-1" d="m74.61,44.05l-12.56-1.93c-.72-.11-1.39.38-1.5,1.1-.11.72.38,1.39,1.1,1.5l13.52,2.08c.07.01.14.02.2.02.54,0,1.03-.33,1.23-.85.59-1.55,2.03-2.55,3.68-2.55,1.41,0,2.72.76,3.42,1.98.36.63,1.17.85,1.8.48.63-.36.85-1.17.48-1.8-1.17-2.03-3.36-3.29-5.7-3.29s-4.5,1.28-5.67,3.26h0Z"/>
      <path id="Shape-4" data-name="Shape" class="cls-1" d="m46.05,40.78c0-2.9-2.36-5.27-5.27-5.27s-5.27,2.36-5.27,5.27,2.36,5.27,5.27,5.27,5.27-2.36,5.27-5.27Zm-5.27,2.63c-1.45,0-2.63-1.18-2.63-2.63s1.18-2.63,2.63-2.63,2.63,1.18,2.63,2.63-1.18,2.63-2.63,2.63Z"/>
      <path id="Shape-5" data-name="Shape" class="cls-1" d="m35.52,53.95c0,2.18,1.77,3.95,3.95,3.95s3.95-1.77,3.95-3.95-1.77-3.95-3.95-3.95-3.95,1.77-3.95,3.95Zm5.27,0c0,.73-.59,1.32-1.32,1.32s-1.32-.59-1.32-1.32.59-1.32,1.32-1.32,1.32.59,1.32,1.32Z"/>
      <path id="Shape-6" data-name="Shape" class="cls-1" d="m60.53,38.15c0-2.18-1.77-3.95-3.95-3.95s-3.95,1.77-3.95,3.95,1.77,3.95,3.95,3.95,3.95-1.77,3.95-3.95Zm-5.27,0c0-.73.59-1.32,1.32-1.32s1.32.59,1.32,1.32-.59,1.32-1.32,1.32-1.32-.59-1.32-1.32Z"/>
      <path id="Path-5" data-name="Path" class="cls-1" d="m52.63,47.37c.33,0,.67.04.99.13.7.18,1.42-.24,1.6-.95.18-.7-.24-1.42-.95-1.6-.54-.14-1.09-.21-1.64-.21-3.63,0-6.58,2.95-6.58,6.58,0,.56.07,1.11.21,1.64.15.59.69.99,1.27.99.11,0,.22-.01.33-.04.7-.18,1.13-.9.95-1.6-.08-.32-.13-.65-.13-.99,0-2.18,1.77-3.95,3.95-3.95h0Z"/>
      <path id="Path-6" data-name="Path" class="cls-1" d="m52.71,28.31c-.24.68.11,1.44.8,1.68,1.63.58,3.18,1.4,4.61,2.42.46.33,1.09.33,1.55,0l6.96-5.11c.5-.37.68-1.03.42-1.6-.68-1.51-.36-3.24.8-4.4,1.49-1.49,4.09-1.49,5.59,0,.75.75,1.16,1.74,1.16,2.79s-.41,2.05-1.16,2.79c-1.16,1.16-2.89,1.48-4.4.8-.57-.25-1.23-.08-1.6.42l-5.11,6.96c-.34.46-.34,1.09,0,1.55,1.02,1.42,1.84,2.97,2.42,4.61.19.54.7.88,1.24.88.15,0,.3-.03.44-.08.68-.25,1.04-1,.8-1.68-.56-1.57-1.3-3.07-2.22-4.47l3.98-5.43c2.23.58,4.66-.04,6.32-1.7,1.24-1.24,1.93-2.9,1.93-4.65s-.69-3.41-1.93-4.66c-1.24-1.24-2.9-1.93-4.65-1.93s-3.41.69-4.65,1.93c-1.68,1.68-2.3,4.07-1.7,6.32l-5.42,3.98c-1.4-.92-2.9-1.66-4.47-2.22-.69-.25-1.44.11-1.68.8h0Z"/>
      <path id="Path-7" data-name="Path" class="cls-1" d="m42.02,66.42c.24-.69-.11-1.44-.8-1.68-1.63-.58-3.19-1.4-4.61-2.42-.46-.34-1.09-.33-1.55,0l-6.96,5.11c-.5.37-.68,1.03-.42,1.6.68,1.51.36,3.24-.8,4.41-1.49,1.49-4.09,1.49-5.59,0-.75-.75-1.16-1.74-1.16-2.79s.41-2.05,1.16-2.79c1.16-1.16,2.89-1.48,4.41-.8.56.25,1.23.08,1.6-.42l5.11-6.96c.34-.46.34-1.09,0-1.55-1.03-1.42-1.84-2.98-2.42-4.61-.25-.68-1-1.04-1.68-.8-.68.25-1.04,1-.8,1.68.56,1.57,1.3,3.07,2.22,4.47l-3.98,5.42c-2.25-.6-4.64.02-6.32,1.7-1.24,1.24-1.93,2.9-1.93,4.65s.69,3.41,1.93,4.65c1.24,1.24,2.9,1.93,4.65,1.93s3.41-.69,4.65-1.93c1.68-1.68,2.3-4.07,1.7-6.32l5.42-3.98c1.4.92,2.9,1.66,4.47,2.22.69.24,1.44-.11,1.68-.8h0Z"/>
      <path id="Path-8" data-name="Path" class="cls-1" d="m25.75,30.44l3.98,5.43c-.92,1.4-1.66,2.9-2.22,4.47-.24.69.11,1.44.8,1.68.15.05.3.08.44.08.54,0,1.05-.34,1.24-.88.58-1.64,1.4-3.19,2.42-4.61.33-.46.33-1.09,0-1.55l-5.11-6.96c-.37-.5-1.04-.68-1.6-.42-1.51.68-3.24.36-4.4-.8-.75-.75-1.16-1.74-1.16-2.79s.41-2.05,1.16-2.79c1.49-1.49,4.09-1.49,5.59,0,1.16,1.16,1.48,2.89.8,4.4-.25.57-.08,1.23.42,1.6l6.96,5.11c.46.34,1.09.34,1.55,0,1.43-1.03,2.98-1.84,4.61-2.42.68-.24,1.04-1,.8-1.68-.25-.69-1-1.04-1.68-.8-1.57.56-3.07,1.3-4.47,2.22l-5.42-3.98c.6-2.25-.02-4.64-1.7-6.32-1.24-1.24-2.9-1.93-4.65-1.93s-3.41.69-4.65,1.93c-1.24,1.24-1.93,2.9-1.93,4.66s.69,3.41,1.93,4.65c1.65,1.65,4.09,2.28,6.32,1.7h0Z"/>
    </g>
  </g>
</svg>