<?xml version="1.0" encoding="UTF-8"?>
<svg id="Layer_1" data-name="Layer 1" xmlns="http://www.w3.org/2000/svg" viewBox="0 0 100 100">
  <defs>
    <style>
      .cls-1 {
        fill: #1f6c8d;
      }
    </style>
  </defs>
  <g id="Page-1">
    <g id="Group-17">
      <g id="Group-16">
        <polygon id="Path" class="cls-1" points="52.64 55.27 57.91 55.27 57.91 57.91 52.64 57.91 52.64 55.27"/>
        <polygon id="Path-2" data-name="Path" class="cls-1" points="52.64 48.68 57.91 48.68 57.91 51.32 52.64 51.32 52.64 48.68"/>
        <polygon id="Path-3" data-name="Path" class="cls-1" points="52.64 42.09 57.91 42.09 57.91 44.73 52.64 44.73 52.64 42.09"/>
        <path id="Shape" class="cls-1" d="m40.77,31.33v-4.84l-3-.73-.36-.89,1.61-2.64-3.43-3.43-2.64,1.61-.89-.36-.74-3.02h-4.84l-.73,3-.89.36-2.64-1.61-3.44,3.44,1.61,2.64-.36.89-3,.73v4.84l3,.73.36.89-1.61,2.64,3.43,3.43,2.64-1.61.89.36.73,3h4.84l.73-3,.89-.36,2.64,1.61,3.43-3.43-1.61-2.64.36-.89,3.03-.72Zm-4.93-1.53l-1.4,3.38,1.24,2.01-.49.49-2.01-1.24-3.38,1.4-.54,2.29h-.69l-.54-2.29-3.38-1.4-2.01,1.24-.49-.49,1.24-2.01-1.4-3.38-2.29-.54v-.69l2.29-.54,1.4-3.38-1.24-2.01.49-.49,2.01,1.24,3.38-1.4.54-2.29h.69l.54,2.29,3.38,1.4,2.01-1.24.49.49-1.24,2.01,1.4,3.38,2.29.54v.69l-2.29.54Z"/>
        <path id="Shape-2" data-name="Shape" class="cls-1" d="m28.91,24.95c-2.19,0-3.95,1.76-3.95,3.95s1.76,3.95,3.95,3.95,3.95-1.76,3.95-3.95-1.78-3.95-3.95-3.95Zm0,5.27c-.73,0-1.32-.59-1.32-1.32s.59-1.32,1.32-1.32,1.32.59,1.32,1.32-.59,1.32-1.32,1.32Z"/>
        <path id="Shape-3" data-name="Shape" class="cls-1" d="m75.62,35.5c1.8,0,3.38-1.22,3.82-2.97l1.25,1.25,1.86-1.86-2.37-2.37,1.15-4.6h1.61v-2.64h-23.73v2.64h1.61l1.15,4.6-2.37,2.37,1.86,1.86,1.25-1.25c.44,1.75,2.03,2.97,3.82,2.97h9.06Zm3.02-10.55l-.61,2.44-2.44-2.44h3.05Zm-15.09,0h3.03l-2.44,2.44-.59-2.44Zm1.73,6.9l-.38-1.5,5.42-5.42h1.55l5.42,5.42-.38,1.5c-.15.59-.68,1.01-1.29,1.01h-9.06c-.61,0-1.14-.41-1.29-1.01h0Z"/>
        <path id="Shape-4" data-name="Shape" class="cls-1" d="m40.77,70.55l-3.41-3.41h-3.18v-3.95h-15.82v13.18h1.55c-.73,2.06.35,4.32,2.41,5.04s4.32-.35,5.04-2.41c.3-.86.3-1.78,0-2.64h4.42c-.73,2.06.35,4.32,2.41,5.04s4.32-.35,5.04-2.41c.3-.86.3-1.78,0-2.64h1.55v-5.82Zm-17.14,8.45c-.73,0-1.32-.59-1.32-1.32s.59-1.32,1.32-1.32,1.32.59,1.32,1.32-.59,1.32-1.32,1.32Zm7.91-5.27h-10.55v-7.91h10.55v7.91Zm3.95,5.27c-.73,0-1.32-.59-1.32-1.32s.59-1.32,1.32-1.32,1.32.59,1.32,1.32-.59,1.32-1.32,1.32Zm2.64-5.27h-3.95v-3.95h2.09l1.86,1.86v2.09Z"/>
        <path id="Shape-5" data-name="Shape" class="cls-1" d="m63.18,36.82h-15.82v10.55l-3.95-2.97-6.59,4.94v13.84h26.36v-26.36Zm-15.82,23.73h-2.64v-7.91h-2.64v7.91h-2.64v-9.89l3.95-2.97,3.95,2.97v9.89Zm13.18,0h-10.55v-21.09h10.55v21.09Z"/>
        <path id="Path-4" data-name="Path" class="cls-1" d="m67.96,78.64c2.64,1.96,6.25,1.96,8.88,0,.82-.61,1.83-.96,2.87-.96h3.25v-2.64h-3.25c-1.6,0-3.16.53-4.45,1.48-1.7,1.27-4.02,1.27-5.72,0-1.29-.96-2.83-1.48-4.45-1.48h-.07l1.7-1.7-1.86-1.86-4.86,4.88,4.89,4.89,1.86-1.86-1.71-1.71h.07c1.02,0,2.03.33,2.85.96Z"/>
        <path id="Path-5" data-name="Path" class="cls-1" d="m75.54,64.86c-2.64-1.96-6.25-1.96-8.88,0-.82.61-1.83.96-2.87.96h-3.25v2.64h3.25c1.6,0,3.16-.53,4.45-1.48,1.7-1.27,4.02-1.27,5.72,0,1.29.96,2.83,1.48,4.45,1.48h.07l-1.7,1.7,1.86,1.86,4.89-4.89-4.89-4.89-1.86,1.86,1.7,1.7h-.07c-1.04.03-2.04-.3-2.87-.92h0Z"/>
        <path id="Path-6" data-name="Path" class="cls-1" d="m71.09,52.64h-5.27v2.64h5.27c8.73,0,15.82,7.09,15.82,15.82s-7.09,15.82-15.82,15.82-15.82-7.09-15.82-15.82v-5.27h-2.64v5.27c0,10.2,8.26,18.46,18.46,18.46s18.46-8.26,18.46-18.46-8.26-18.46-18.46-18.46Z"/>
        <path id="Path-7" data-name="Path" class="cls-1" d="m44.73,71.09c0,8.73-7.09,15.82-15.82,15.82s-15.82-7.09-15.82-15.82,7.09-15.82,15.82-15.82h5.27v-2.64h-5.27c-10.2,0-18.46,8.26-18.46,18.46s8.26,18.46,18.46,18.46,18.46-8.26,18.46-18.46v-5.27h-2.64v5.27Z"/>
        <path id="Path-8" data-name="Path" class="cls-1" d="m28.91,47.36h5.27v-2.64h-5.27c-8.73,0-15.82-7.09-15.82-15.82s7.09-15.82,15.82-15.82,15.82,7.09,15.82,15.82v5.27h2.64v-5.27c0-10.2-8.26-18.46-18.46-18.46S10.45,18.71,10.45,28.91s8.26,18.46,18.46,18.46Z"/>
        <path id="Path-9" data-name="Path" class="cls-1" d="m55.27,28.91c0-8.73,7.09-15.82,15.82-15.82s15.82,7.09,15.82,15.82-7.09,15.82-15.82,15.82h-5.27v2.64h5.27c10.2,0,18.46-8.26,18.46-18.46s-8.26-18.46-18.46-18.46-18.46,8.26-18.46,18.46v5.27h2.64v-5.27Z"/>
      </g>
    </g>
  </g>
</svg>